<svg preserveAspectRatio="none" width="100%" height="100%" overflow="visible" style="display: block;" viewBox="0 0 186 19.927" fill="none" xmlns="http://www.w3.org/2000/svg">
<g id="Group 5">
<path id="Vector" d="M17.2728 7.33942L10.4159 19.927L0 0.341836H4.41371L10.4159 12.6479L17.2728 0L23.8581 12.6178L30.0916 0.341836H34.5053L24.0894 19.927L17.2627 7.33942H17.2728Z" fill="var(--fill-0, white)"/>
<path id="Vector_2" d="M36.4156 19.5852V0.341797H40.3467V19.5751H36.4156V19.5852Z" fill="var(--fill-0, white)"/>
<path id="Vector_3" d="M42.4181 19.5852L56.0312 3.65962H43.142V0.341797H63.2097L49.657 16.3075H63.8633V19.5852H42.4181Z" fill="var(--fill-0, white)"/>
<path id="Vector_4" d="M87.8924 18.067C85.1678 19.4143 81.6891 19.927 78.4115 19.927C69.755 19.927 64.2454 15.9255 64.2454 9.99368C64.2454 4.06182 69.7248 0 78.311 0C81.488 0 85.1075 0.482592 87.8924 1.85999V5.2683C86.133 4.44387 82.8956 3.26755 78.5522 3.26755C71.8261 3.26755 68.448 6.23348 68.448 9.95346C68.448 13.6734 71.7557 16.6092 78.6226 16.6092C83.1369 16.6092 86.4849 15.3726 87.8924 14.6788V18.057V18.067Z" fill="var(--fill-0, white)"/>
<path id="Vector_5" d="M106.774 19.5852L102.049 12.9696H94.5985V19.5852H90.6674V0.341797H103.868C108.835 0.341797 111.007 3.68978 111.007 6.64565C111.007 9.02845 109.458 11.4012 106.251 12.4368L111.288 19.5751H106.774V19.5852ZM94.5985 3.64956V9.6518H102.943C105.839 9.6518 106.905 8.2744 106.905 6.65571C106.905 5.03701 105.839 3.65962 102.943 3.65962H94.5985V3.64956Z" fill="var(--fill-0, white)"/>
<path id="Vector_6" d="M126.812 19.927C118.507 19.927 112.917 15.9255 112.917 9.96351C112.917 4.00149 118.497 0 126.812 0C135.126 0 140.777 4.00149 140.777 9.96351C140.777 15.9255 135.368 19.927 126.812 19.927ZM126.812 3.34798C121.232 3.34798 117.089 5.7911 117.089 9.96351C117.089 14.1359 121.262 16.6193 126.812 16.6193C132.361 16.6193 136.604 14.1761 136.604 9.96351C136.604 5.75089 132.361 3.34798 126.812 3.34798Z" fill="var(--fill-0, white)"/>
<path id="Vector_7" d="M147.372 12.2055V19.5852H143.441V0.341797H162.916V3.68978H147.402V8.89775H159.95V12.2055H147.362H147.372Z" fill="var(--fill-0, white)"/>
<path id="Vector_8" d="M173.452 19.5852V3.64956H164.836V0.341797H186V3.64956H177.343V19.5751H173.452V19.5852Z" fill="var(--fill-0, white)"/>
</g>
</svg>
