<svg preserveAspectRatio="none" width="100%" height="100%" overflow="visible" style="display: block;" viewBox="0 0 55 55.0002" fill="none" xmlns="http://www.w3.org/2000/svg">
<g id="Group 7">
<g id="Group">
<path id="Vector" d="M27.5 0.000190735C12.3122 0.000190735 0 12.3124 0 27.5002C0 42.688 12.3122 55.0002 27.5 55.0002C42.6878 55.0002 55 42.688 55 27.5002C55 12.3124 42.6878 0.000190735 27.5 0.000190735Z" fill="var(--fill-0, #4B4B4B)" fill-opacity="0.5"/>
</g>
<path id="Vector_2" d="M27.5006 13.7509C19.9065 13.7509 13.7501 19.9299 13.7501 27.5521C13.7501 34.0245 18.1898 39.4555 24.179 40.9472V31.7699H21.3437V27.5521H24.179V25.7348C24.179 21.0374 26.2972 18.8601 30.8921 18.8601C31.7632 18.8601 33.2665 19.0319 33.8814 19.2029V23.0259C33.5569 22.9917 32.9931 22.9746 32.2929 22.9746C30.0385 22.9746 29.1672 23.8319 29.1672 26.0606V27.5521H33.6586L32.887 31.7699H29.1672V41.2524C35.9759 40.4271 41.2517 34.6085 41.2517 27.5521C41.2511 19.9299 35.0948 13.7509 27.5006 13.7509Z" fill="var(--fill-0, white)"/>
</g>
</svg>
