<svg preserveAspectRatio="none" width="100%" height="100%" overflow="visible" style="display: block;" viewBox="0 0 55 55.0002" fill="none" xmlns="http://www.w3.org/2000/svg">
<g id="Group 6">
<g id="Group">
<path id="Vector" d="M27.5 0.000190735C12.3122 0.000190735 0 12.3124 0 27.5002C0 42.688 12.3122 55.0002 27.5 55.0002C42.6878 55.0002 55 42.688 55 27.5002C55 12.3124 42.6878 0.000190735 27.5 0.000190735Z" fill="var(--fill-0, #4B4B4B)" fill-opacity="0.5"/>
</g>
<path id="Vector_2" fill-rule="evenodd" clip-rule="evenodd" d="M41.2517 27.5017C41.2517 35.0959 35.0952 41.2524 27.5009 41.2524C19.9066 41.2524 13.7501 35.0959 13.7501 27.5017C13.7501 19.9074 19.9066 13.7509 27.5009 13.7509C35.0952 13.7509 41.2517 19.9074 41.2517 27.5017ZM27.9937 23.9023C26.6562 24.4586 23.9832 25.61 19.9746 27.3565C19.3236 27.6154 18.9826 27.8685 18.9515 28.1162C18.8991 28.5346 19.4232 28.6995 20.1368 28.9239C20.2339 28.9544 20.3344 28.9861 20.4375 29.0195C21.1397 29.2477 22.0841 29.5148 22.575 29.5254C23.0204 29.535 23.5174 29.3514 24.0662 28.9745C27.8117 26.4463 29.745 25.1684 29.8665 25.1408C29.952 25.1214 30.0707 25.0969 30.1511 25.1684C30.2315 25.2399 30.2236 25.3752 30.215 25.4115C30.1632 25.6328 28.1061 27.5453 27.0415 28.535C26.7097 28.8436 26.4743 29.0624 26.4261 29.1124C26.3183 29.2244 26.2085 29.3302 26.1029 29.432C25.4507 30.0608 24.9616 30.5323 26.13 31.3024C26.6915 31.6724 27.1408 31.9784 27.5891 32.2836C28.0786 32.6171 28.5669 32.9496 29.1987 33.3638C29.3596 33.4692 29.5133 33.5788 29.6631 33.6855C30.2328 34.0917 30.7447 34.4565 31.377 34.3984C31.7444 34.3645 32.1241 34.0191 32.3167 32.9886C32.7723 30.5534 33.6677 25.2768 33.8747 23.1025C33.8928 22.9121 33.87 22.6683 33.8517 22.5611C33.8333 22.4542 33.7951 22.3017 33.6559 22.1888C33.4912 22.0551 33.2369 22.0269 33.1231 22.029C32.6059 22.0381 31.8125 22.3139 27.9937 23.9023Z" fill="var(--fill-0, white)"/>
</g>
</svg>
