<svg width="347" height="75" viewBox="0 0 347 75" fill="none" xmlns="http://www.w3.org/2000/svg">
<path d="M32.222 13.6998L19.423 37.175L0 0.643261H8.23234L19.423 23.6045L32.222 9.15527e-05L44.5058 23.54L56.1478 0.643261H64.3803L44.9566 37.175L32.222 13.6998Z" fill="white"/>
<path d="M67.9424 36.532V0.643402H75.274V36.532H67.9424Z" fill="white"/>
<path d="M79.1301 36.532L104.534 6.81775H80.4802V0.643402H117.912L92.6359 30.4224H119.134V36.532H79.1301Z" fill="white"/>
<path d="M163.975 33.7023C158.893 36.2108 152.397 37.1751 146.288 37.1751C130.144 37.1751 119.853 29.7143 119.853 18.6523C119.853 7.59029 130.079 0.000183105 146.094 0.000183105C152.012 0.000183105 158.764 0.90107 163.975 3.47431V9.84148C160.695 8.29742 154.648 6.11113 146.544 6.11113C134.003 6.11113 127.7 11.6421 127.7 18.5879C127.7 25.4702 133.875 31.0012 146.674 31.0012C155.099 31.0012 161.337 28.6855 163.975 27.3989V33.7023Z" fill="white"/>
<path d="M199.192 36.532L190.38 24.1833H176.488V36.532H169.156V0.643402H193.789C203.051 0.643402 207.102 6.88246 207.102 12.4133C207.102 16.8517 204.208 21.289 198.226 23.2188L207.617 36.5318L199.192 36.532ZM176.488 6.81775V18.0092H192.052C197.455 18.0092 199.448 15.437 199.448 12.4135C199.448 9.4557 197.455 6.81775 192.052 6.81775H176.488Z" fill="white"/>
<path d="M236.57 37.1751C221.07 37.1751 210.651 29.7143 210.651 18.5876C210.651 7.52558 221.07 0 236.57 0C252.071 0 262.618 7.46087 262.618 18.5876C262.618 29.7143 252.521 37.1751 236.57 37.1751ZM236.57 6.23906C226.152 6.23906 218.433 10.8056 218.433 18.5876C218.433 26.4341 226.215 31.0008 236.57 31.0008C246.989 31.0008 254.836 26.4341 254.836 18.5876C254.836 10.8056 246.926 6.23906 236.57 6.23906Z" fill="white"/>
<path d="M274.94 22.7687V36.532H267.608V0.643402H303.946V6.88246H275.004V16.5943H298.415V22.7687H274.94Z" fill="white"/>
<path d="M323.59 36.532V6.81775H307.51V0.643402H347V6.81775H330.856V36.532H323.59Z" fill="white"/>
<path d="M15.2496 70.7325C15.1338 70.7325 14.993 70.7258 14.8264 70.7138C13.4155 70.6618 12.2777 70.2518 11.4119 69.4826C10.5467 68.7134 10.1138 67.5718 10.1138 66.0587C10.1138 65.0461 10.3188 64.2026 10.7294 63.529C11.1396 62.8562 11.7006 62.3533 12.4122 62.0195C13.1239 61.6865 13.9415 61.5003 14.8649 61.462L15.6918 61.4423V62.4233C15.384 62.4233 15.0762 62.43 14.7684 62.443C13.6914 62.4942 12.829 62.8211 12.1813 63.4232C11.5337 64.0268 11.2101 64.9046 11.2101 66.0589C11.2101 67.2389 11.5243 68.1328 12.1526 68.7417C12.7806 69.3513 13.6464 69.6748 14.7491 69.7133C15.0057 69.7133 15.3071 69.72 15.6534 69.733V70.7327L15.2496 70.7325ZM15.192 70.309V57.5762H16.2883V61.8077L16.269 62.0382V70.1554L16.2883 70.2902V74.4252H15.192V70.309ZM16.7113 69.7131C17.814 69.6619 18.6796 69.335 19.3081 68.7321C19.9361 68.1295 20.2503 67.2389 20.2503 66.0589C20.2503 64.8917 19.9297 64.0107 19.2888 63.4138C18.6472 62.8179 17.7883 62.4944 16.7113 62.4432C16.3907 62.4302 16.1084 62.4235 15.8652 62.4235V61.4425C16.1853 61.4425 16.4676 61.4493 16.7113 61.4622C18.0961 61.5391 19.2181 61.9497 20.0774 62.6925C20.9362 63.4371 21.3661 64.546 21.3661 66.0206C21.3661 67.0333 21.1607 67.8862 20.7505 68.5785C20.34 69.271 19.7823 69.7936 19.0771 70.1462C18.3718 70.4988 17.5578 70.6875 16.6344 70.714C16.4162 70.726 16.1596 70.7327 15.8652 70.7327V69.733C16.1981 69.72 16.4804 69.7131 16.7113 69.7131Z" fill="white"/>
<path d="M23.8086 57.9612H25.1167V59.6337H23.8086V57.9612ZM23.905 61.5002H25.0013V70.6555H23.905V61.5002Z" fill="white"/>
<path d="M28.1365 61.5003H29.2328V65.4621H34.6955V61.5003H35.7919V70.6556H34.6955V66.4626H29.2328V70.6556H28.1365V61.5003Z" fill="white"/>
<path d="M39.2634 70.1553C38.6799 69.6943 38.3882 69.0335 38.3882 68.1744C38.3882 67.2898 38.6892 66.623 39.2924 66.174C39.8949 65.725 40.7474 65.4885 41.8505 65.462C42.4145 65.45 43.1586 65.456 44.0818 65.4817C44.2868 65.4817 44.4858 65.4885 44.6779 65.5005V64.5587C44.6779 63.815 44.4725 63.2438 44.0623 62.8467C43.6519 62.4489 43.1008 62.2499 42.4085 62.2499C41.7284 62.2499 41.1679 62.4138 40.7253 62.7408C40.283 63.0677 39.9658 63.5323 39.7732 64.135L38.7344 63.9232C38.9522 63.0771 39.3787 62.43 40.0135 61.9807C40.6484 61.5317 41.4467 61.307 42.4085 61.307C43.4339 61.307 44.2455 61.5767 44.8414 62.1156C45.4377 62.6536 45.7358 63.4492 45.7358 64.5003V70.6554H44.6972V68.8086L44.9857 68.7701C44.7291 69.3728 44.3125 69.8698 43.7357 70.2607C43.1586 70.6518 42.434 70.8473 41.5618 70.8473C40.6129 70.8473 39.8465 70.6171 39.2634 70.1553ZM43.1678 69.5883C43.6361 69.3765 44.0045 69.0785 44.2739 68.6936C44.5432 68.3093 44.6777 67.8799 44.6777 67.4052V66.3858C43.6007 66.3473 42.6644 66.3406 41.8694 66.3663C41.1002 66.379 40.5101 66.5336 40.0999 66.8282C39.6893 67.1237 39.4843 67.559 39.4843 68.1363C39.4843 68.7007 39.68 69.1361 40.0709 69.4444C40.4619 69.7517 40.9652 69.9055 41.5808 69.9055C42.1707 69.9055 42.6998 69.8001 43.1678 69.5883Z" fill="white"/>
<path d="M48.7363 61.5003H49.8327V65.4621H55.2954V61.5003H56.3917V70.6556H55.2954V66.4626H49.8327V70.6556H48.7363V61.5003Z" fill="white"/>
<path d="M60.0942 69.5883C59.331 68.7482 58.9497 67.5785 58.9497 66.0774C58.9497 65.0647 59.1226 64.2025 59.4689 63.4903C59.8151 62.779 60.3056 62.237 60.9404 61.8654C61.5751 61.4931 62.309 61.307 63.1428 61.307C64.22 61.307 65.0822 61.5572 65.7299 62.0575C66.3776 62.5579 66.7975 63.2247 66.9896 64.0579L65.9317 64.2696C65.752 63.6797 65.4412 63.205 64.9989 62.8464C64.5567 62.4868 63.9377 62.3077 63.1428 62.3077C62.5015 62.3077 61.947 62.4613 61.4792 62.7697C61.0109 63.0771 60.6549 63.5134 60.4116 64.0768C60.1678 64.6412 60.0462 65.308 60.0462 66.0772C60.0462 67.2315 60.3186 68.1485 60.8638 68.8283C61.4085 69.5078 62.1686 69.8477 63.143 69.8477C63.9379 69.8477 64.5569 69.6684 64.9991 69.309C65.4414 68.9504 65.7458 68.4757 65.9128 67.8858L66.9707 68.0778C66.7786 68.9239 66.3581 69.5977 65.711 70.0979C65.0633 70.5974 64.2074 70.8476 63.1432 70.8476C61.8735 70.8476 60.8567 70.4284 60.0942 69.5883Z" fill="white"/>
<path d="M69.932 69.5783C69.1628 68.7321 68.7781 67.5658 68.7781 66.0777C68.7781 65.0907 68.951 64.2376 69.2973 63.5196C69.6435 62.8016 70.137 62.2536 70.7787 61.8752C71.4194 61.4969 72.1759 61.3075 73.0481 61.3075C74.3561 61.3075 75.3947 61.731 76.1641 62.5771C76.9337 63.4232 77.3184 64.5905 77.3184 66.0777C77.3184 67.0656 77.1451 67.9185 76.7988 68.6365C76.4528 69.3545 75.9557 69.9027 75.3082 70.2809C74.6606 70.659 73.9071 70.8477 73.0482 70.8477C71.7401 70.8477 70.7014 70.4253 69.932 69.5783ZM74.7697 69.3954C75.2505 69.0949 75.6129 68.6584 75.8563 68.0882C76.1002 67.5171 76.2223 66.8467 76.2223 66.0775C76.2223 64.9112 75.943 63.9908 75.3855 63.318C74.8277 62.6443 74.0485 62.3079 73.0482 62.3079C72.3814 62.3079 71.8077 62.4589 71.3269 62.7596C70.8458 63.061 70.4833 63.4973 70.24 64.0677C69.9961 64.6389 69.8746 65.3083 69.8746 66.0775C69.8746 67.2447 70.1505 68.1651 70.7016 68.8379C71.2532 69.5117 72.0288 69.848 73.0291 69.848C73.7089 69.848 74.2886 69.6968 74.7697 69.3954Z" fill="white"/>
<path d="M79.8572 61.5003H83.6849C84.7103 61.5003 85.4735 61.7017 85.9736 62.1056C86.474 62.5094 86.724 63.0959 86.724 63.8661C86.724 64.4817 86.5571 64.9915 86.2236 65.3953C85.8903 65.7991 85.3775 66.0135 84.6852 66.039V65.847C85.4544 65.8854 86.0345 66.1066 86.4256 66.5104C86.8167 66.9142 87.0121 67.4368 87.0121 68.0781C87.0121 68.8857 86.7655 69.5177 86.2718 69.9727C85.7779 70.4287 85.0243 70.6556 84.0118 70.6556H79.8572V61.5003ZM85.2619 65.1256C85.5442 64.8499 85.6855 64.4622 85.6855 63.9619C85.6855 63.4624 85.5313 63.0843 85.2235 62.8271C84.9157 62.5709 84.4158 62.443 83.7233 62.443H80.9535V65.5397H83.9538C84.5437 65.5397 84.9798 65.4015 85.2619 65.1256ZM85.4831 69.2708C85.7973 68.9763 85.9543 68.5783 85.9543 68.0781C85.9543 67.5529 85.7907 67.1517 85.4638 66.876C85.1368 66.6001 84.6527 66.4627 84.0118 66.4627H80.9535V69.7133H84.0118C84.6782 69.7133 85.1687 69.5662 85.4831 69.2708Z" fill="white"/>
<path d="M90.1092 69.5783C89.34 68.7321 88.9553 67.5658 88.9553 66.0777C88.9553 65.0907 89.1283 64.2376 89.4743 63.5196C89.8204 62.8016 90.3141 62.2536 90.9557 61.8752C91.5966 61.4969 92.3531 61.3075 93.2251 61.3075C94.5332 61.3075 95.5718 61.731 96.3412 62.5771C97.1109 63.4232 97.4955 64.5905 97.4955 66.0777C97.4955 67.0656 97.3221 67.9185 96.9759 68.6365C96.6296 69.3545 96.1328 69.9027 95.4851 70.2809C94.8374 70.659 94.084 70.8477 93.2251 70.8477C91.9172 70.8477 90.8785 70.4253 90.1092 69.5783ZM94.9468 69.3954C95.4275 69.0949 95.7899 68.6584 96.0334 68.0882C96.2772 67.5171 96.3991 66.8467 96.3991 66.0775C96.3991 64.9112 96.12 63.9908 95.5624 63.318C95.0044 62.6443 94.2254 62.3079 93.2251 62.3079C92.5583 62.3079 91.9845 62.4589 91.5038 62.7596C91.0227 63.061 90.6603 63.4973 90.4168 64.0677C90.173 64.6389 90.0515 65.3083 90.0515 66.0775C90.0515 67.2447 90.3272 68.1651 90.8785 68.8379C91.4299 69.5117 92.2057 69.848 93.206 69.848C93.8855 69.848 94.4655 69.6968 94.9468 69.3954Z" fill="white"/>
<path d="M99.4763 64.9813H105.208V66.0392H99.4763V64.9813Z" fill="white"/>
<path d="M107.786 61.5003H115.326V70.6556H114.229V62.5197H108.882V70.6556H107.786V61.5003Z" fill="white"/>
<path d="M118.461 61.5003H119.558V64.0002H119.25C119.416 63.1668 119.839 62.5094 120.519 62.0286C121.199 61.5479 121.987 61.3073 122.885 61.3073C123.693 61.3073 124.408 61.4933 125.03 61.8656C125.652 62.237 126.136 62.7793 126.482 63.4905C126.828 64.2027 127.001 65.0462 127.001 66.0205C127.001 67.0074 126.828 67.8639 126.482 68.5879C126.136 69.3128 125.642 69.8703 125.001 70.2614C124.36 70.6524 123.61 70.8479 122.751 70.8479C121.878 70.8479 121.151 70.6524 120.567 70.2614C119.984 69.8703 119.539 69.335 119.231 68.6554H119.558V74.3871H118.461L118.461 61.5003ZM124.443 69.3862C124.917 69.0787 125.28 68.6365 125.53 68.0593C125.78 67.4822 125.905 66.8152 125.905 66.0589C125.905 64.9174 125.626 64.0071 125.068 63.3275C124.511 62.6478 123.731 62.3081 122.731 62.3081C122.18 62.3081 121.664 62.4327 121.183 62.6829C120.702 62.9331 120.311 63.3242 120.01 63.8559C119.708 64.3888 119.558 65.0393 119.558 65.8085V66.77C119.558 67.412 119.702 67.9627 119.99 68.4247C120.279 68.8857 120.666 69.2391 121.154 69.4826C121.642 69.726 122.173 69.848 122.75 69.848C123.405 69.848 123.968 69.6945 124.443 69.3862Z" fill="white"/>
<path d="M129.876 70.1553C129.293 69.6943 129.001 69.0335 129.001 68.1744C129.001 67.2898 129.302 66.623 129.905 66.174C130.508 65.725 131.36 65.4885 132.463 65.462C133.027 65.45 133.771 65.456 134.695 65.4817C134.9 65.4817 135.099 65.4885 135.291 65.5005V64.5587C135.291 63.815 135.086 63.2438 134.675 62.8467C134.265 62.4489 133.714 62.2499 133.021 62.2499C132.341 62.2499 131.781 62.4138 131.338 62.7408C130.896 63.0677 130.579 63.5323 130.386 64.135L129.347 63.9232C129.565 63.0771 129.992 62.43 130.626 61.9807C131.261 61.5317 132.06 61.307 133.021 61.307C134.047 61.307 134.858 61.5767 135.454 62.1156C136.051 62.6536 136.349 63.4492 136.349 64.5003V70.6554H135.31V68.8086L135.599 68.7701C135.342 69.3728 134.925 69.8698 134.349 70.2607C133.771 70.6518 133.047 70.8473 132.175 70.8473C131.226 70.8473 130.46 70.6171 129.876 70.1553ZM133.781 69.5883C134.249 69.3765 134.618 69.0785 134.887 68.6936C135.156 68.3093 135.291 67.8799 135.291 67.4052V66.3858C134.214 66.3473 133.277 66.3406 132.482 66.3663C131.713 66.379 131.123 66.5336 130.713 66.8282C130.302 67.1237 130.097 67.559 130.097 68.1363C130.097 68.7007 130.293 69.1361 130.684 69.4444C131.075 69.7517 131.578 69.9055 132.194 69.9055C132.784 69.9055 133.313 69.8001 133.781 69.5883Z" fill="white"/>
<path d="M139.35 61.5003H143.177C144.203 61.5003 144.966 61.7017 145.466 62.1056C145.966 62.5094 146.216 63.0959 146.216 63.8661C146.216 64.4817 146.05 64.9915 145.716 65.3953C145.383 65.7991 144.87 66.0135 144.178 66.039V65.847C144.947 65.8854 145.527 66.1066 145.918 66.5104C146.309 66.9142 146.505 67.4368 146.505 68.0781C146.505 68.8857 146.258 69.5177 145.764 69.9727C145.27 70.4287 144.517 70.6556 143.504 70.6556H139.35V61.5003ZM144.754 65.1256C145.036 64.8499 145.178 64.4622 145.178 63.9619C145.178 63.4624 145.024 63.0843 144.716 62.8271C144.408 62.5709 143.908 62.443 143.216 62.443H140.446V65.5397H143.446C144.036 65.5397 144.472 65.4015 144.754 65.1256ZM144.976 69.2708C145.29 68.9763 145.447 68.5783 145.447 68.0781C145.447 67.5529 145.283 67.1517 144.956 66.876C144.629 66.6001 144.145 66.4627 143.504 66.4627H140.446V69.7133H143.504C144.171 69.7133 144.661 69.5662 144.976 69.2708Z" fill="white"/>
<path d="M149.601 69.5783C148.832 68.7321 148.447 67.5658 148.447 66.0777C148.447 65.0907 148.62 64.2376 148.966 63.5196C149.312 62.8016 149.806 62.2536 150.448 61.8752C151.088 61.4969 151.845 61.3075 152.717 61.3075C154.025 61.3075 155.064 61.731 155.833 62.5771C156.603 63.4232 156.987 64.5905 156.987 66.0777C156.987 67.0656 156.814 67.9185 156.468 68.6365C156.121 69.3545 155.625 69.9027 154.977 70.2809C154.329 70.659 153.576 70.8477 152.717 70.8477C151.409 70.8477 150.371 70.4253 149.601 69.5783ZM154.439 69.3954C154.92 69.0949 155.282 68.6584 155.525 68.0882C155.769 67.5171 155.891 66.8467 155.891 66.0775C155.891 64.9112 155.612 63.9908 155.055 63.318C154.497 62.6443 153.718 62.3079 152.717 62.3079C152.05 62.3079 151.477 62.4589 150.996 62.7596C150.515 63.061 150.152 63.4973 149.909 64.0677C149.665 64.6389 149.544 65.3083 149.544 66.0775C149.544 67.2447 149.82 68.1651 150.371 68.8379C150.922 69.5117 151.698 69.848 152.698 69.848C153.378 69.848 153.958 69.6968 154.439 69.3954Z" fill="white"/>
<path d="M159.526 61.5003H163.354C164.379 61.5003 165.142 61.7017 165.643 62.1056C166.143 62.5094 166.393 63.0959 166.393 63.8661C166.393 64.4817 166.226 64.9915 165.893 65.3953C165.559 65.7991 165.046 66.0135 164.354 66.039V65.847C165.123 65.8854 165.703 66.1066 166.094 66.5104C166.485 66.9142 166.681 67.4368 166.681 68.0781C166.681 68.8857 166.434 69.5177 165.941 69.9727C165.447 70.4287 164.693 70.6556 163.681 70.6556H159.526V61.5003ZM164.931 65.1256C165.213 64.8499 165.354 64.4622 165.354 63.9619C165.354 63.4624 165.2 63.0843 164.892 62.8271C164.585 62.5709 164.085 62.443 163.392 62.443H160.623V65.5397H163.623C164.213 65.5397 164.649 65.4015 164.931 65.1256ZM165.152 69.2708C165.466 68.9763 165.623 68.5783 165.623 68.0781C165.623 67.5529 165.46 67.1517 165.133 66.876C164.806 66.6001 164.322 66.4627 163.681 66.4627H160.622V69.7133H163.681C164.347 69.7133 164.838 69.5662 165.152 69.2708Z" fill="white"/>
<path d="M169.201 61.5003H170.278V69.7516H169.97L175.605 61.5003H176.837V70.6556H175.76V62.5H176.029L170.451 70.6556H169.201V61.5003Z" fill="white"/>
<path d="M179.953 61.5002H181.03V69.7515H180.722L186.358 61.5002H187.589V70.6556H186.512V62.4999H186.781L181.203 70.6556H179.953V61.5002ZM181.857 59.7303C181.446 59.3332 181.216 58.7688 181.165 58.0381H182.126C182.19 58.5119 182.341 58.8715 182.579 59.1147C182.816 59.3589 183.197 59.4801 183.723 59.4801C184.236 59.4801 184.611 59.3588 184.848 59.1147C185.085 58.8715 185.23 58.5121 185.281 58.0381H186.242C186.191 58.7688 185.964 59.3332 185.56 59.7303C185.156 60.1282 184.543 60.3264 183.723 60.3264C182.89 60.3264 182.268 60.1283 181.857 59.7303Z" fill="white"/>
<path d="M195.369 69.5883C194.606 68.7482 194.224 67.5785 194.224 66.0774C194.224 65.0647 194.398 64.2025 194.743 63.4903C195.09 62.779 195.58 62.237 196.215 61.8654C196.85 61.4931 197.584 61.307 198.417 61.307C199.495 61.307 200.356 61.5572 201.004 62.0575C201.652 62.5579 202.072 63.2247 202.265 64.0579L201.207 64.2696C201.026 63.6797 200.716 63.205 200.274 62.8464C199.831 62.4868 199.212 62.3077 198.417 62.3077C197.776 62.3077 197.221 62.4613 196.753 62.7697C196.286 63.0771 195.93 63.5134 195.686 64.0768C195.443 64.6412 195.321 65.308 195.321 66.0772C195.321 67.2315 195.593 68.1485 196.138 68.8283C196.683 69.5078 197.442 69.8477 198.417 69.8477C199.212 69.8477 199.831 69.6684 200.274 69.309C200.716 68.9504 201.021 68.4757 201.187 67.8858L202.245 68.0778C202.053 68.9239 201.633 69.5977 200.986 70.0979C200.338 70.5974 199.481 70.8476 198.418 70.8476C197.148 70.8476 196.132 70.4284 195.369 69.5883Z" fill="white"/>
<path d="M204.111 73.387H204.746C205.207 73.387 205.592 73.2743 205.9 73.0507C206.208 72.8262 206.47 72.4505 206.689 71.9253L207.4 70.2321L207.381 71.021L203.342 61.5001H204.553L208.015 69.8281L207.593 69.7896L210.843 61.4999H211.998L207.631 72.2323C207.425 72.771 207.195 73.1972 206.939 73.5114C206.682 73.8255 206.391 74.05 206.064 74.1851C205.737 74.3201 205.355 74.3865 204.919 74.3865H204.111L204.111 73.387Z" fill="white"/>
<path d="M213.882 61.5003H221.422V70.6556H220.326V62.5197H214.978V70.6556H213.882V61.5003Z" fill="white"/>
<path d="M224.557 61.5003H225.653V64.0002H225.345C225.512 63.1668 225.935 62.5094 226.615 62.0286C227.295 61.5479 228.084 61.3073 228.981 61.3073C229.789 61.3073 230.503 61.4933 231.126 61.8656C231.747 62.237 232.231 62.7793 232.578 63.4905C232.924 64.2027 233.097 65.0462 233.097 66.0205C233.097 67.0074 232.924 67.8639 232.578 68.5879C232.231 69.3128 231.738 69.8703 231.097 70.2614C230.455 70.6524 229.706 70.8479 228.847 70.8479C227.974 70.8479 227.247 70.6524 226.664 70.2614C226.08 69.8703 225.634 69.335 225.327 68.6554H225.654V74.3871H224.557L224.557 61.5003ZM230.539 69.3862C231.013 69.0787 231.376 68.6365 231.626 68.0593C231.876 67.4822 232.001 66.8152 232.001 66.0589C232.001 64.9174 231.721 64.0071 231.164 63.3275C230.606 62.6478 229.827 62.3081 228.827 62.3081C228.275 62.3081 227.76 62.4327 227.278 62.6829C226.797 62.9331 226.407 63.3242 226.105 63.8559C225.804 64.3888 225.653 65.0393 225.653 65.8085V66.77C225.653 67.412 225.798 67.9627 226.086 68.4247C226.375 68.8857 226.763 69.2391 227.25 69.4826C227.737 69.7258 228.27 69.848 228.847 69.848C229.5 69.848 230.064 69.6945 230.539 69.3862Z" fill="white"/>
<path d="M236.214 69.5783C235.443 68.7321 235.059 67.5658 235.059 66.0777C235.059 65.0907 235.232 64.2376 235.578 63.5196C235.925 62.8016 236.418 62.2536 237.06 61.8752C237.701 61.4969 238.457 61.3075 239.329 61.3075C240.637 61.3075 241.676 61.731 242.445 62.5771C243.215 63.4232 243.599 64.5905 243.599 66.0777C243.599 67.0656 243.427 67.9185 243.08 68.6365C242.734 69.3545 242.236 69.9027 241.589 70.2809C240.942 70.659 240.188 70.8477 239.329 70.8477C238.021 70.8477 236.983 70.4253 236.214 69.5783ZM241.05 69.3954C241.532 69.0949 241.894 68.6584 242.137 68.0882C242.381 67.5171 242.502 66.8467 242.502 66.0775C242.502 64.9112 242.224 63.9908 241.666 63.318C241.108 62.6443 240.33 62.3079 239.329 62.3079C238.662 62.3079 238.088 62.4589 237.608 62.7596C237.127 63.061 236.764 63.4973 236.521 64.0677C236.277 64.6389 236.155 65.3083 236.155 66.0775C236.155 67.2447 236.431 68.1651 236.983 68.8379C237.533 69.5117 238.309 69.848 239.31 69.848C239.989 69.848 240.57 69.6968 241.05 69.3954Z" fill="white"/>
<path d="M246.138 61.5003H249.966C250.991 61.5003 251.754 61.7017 252.255 62.1056C252.754 62.5094 253.004 63.0959 253.004 63.8661C253.004 64.4817 252.838 64.9915 252.505 65.3953C252.171 65.7991 251.658 66.0135 250.966 66.039V65.847C251.735 65.8854 252.315 66.1066 252.707 66.5104C253.098 66.9142 253.293 67.4368 253.293 68.0781C253.293 68.8857 253.046 69.5177 252.553 69.9727C252.059 70.4287 251.305 70.6556 250.293 70.6556H246.138L246.138 61.5003ZM251.542 65.1256C251.824 64.8499 251.966 64.4622 251.966 63.9619C251.966 63.4624 251.812 63.0843 251.504 62.8271C251.196 62.5709 250.696 62.443 250.004 62.443H247.234V65.5397H250.234C250.824 65.5397 251.261 65.4015 251.542 65.1256ZM251.764 69.2708C252.078 68.9763 252.235 68.5783 252.235 68.0781C252.235 67.5529 252.072 67.1517 251.745 66.876C251.418 66.6001 250.934 66.4627 250.292 66.4627H247.234V69.7133H250.292C250.959 69.7133 251.449 69.5662 251.764 69.2708Z" fill="white"/>
<path d="M255.717 57.9612H257.025V59.6337H255.717V57.9612ZM255.813 61.5002H256.91V70.6555H255.813V61.5002Z" fill="white"/>
<path d="M258.621 69.6362H259.582C259.929 69.3417 260.211 68.9379 260.428 68.4247C260.647 67.9115 260.781 67.3541 260.832 66.7512C260.884 66.1484 260.916 65.0138 260.929 63.3463V61.5003H267.122V69.6362H268.604V73.2334H267.546V70.6556H259.679V73.2334H258.621V69.6362ZM266.026 69.6362V62.5197H261.968C261.968 64.597 261.929 66.0587 261.852 66.9048C261.762 68.0207 261.435 68.931 260.871 69.6362H266.026Z" fill="white"/>
<path d="M276.23 70.2808C275.583 69.9027 275.086 69.3349 274.739 68.5783C274.393 67.8218 274.22 66.886 274.22 65.77V64.2698C274.22 62.7305 274.419 61.506 274.817 60.5959C275.214 59.6857 275.762 59.0215 276.461 58.6047C277.16 58.1881 278.029 57.9156 279.067 57.7877C279.913 57.6725 280.529 57.5947 280.914 57.5564L282.222 57.4223L282.337 58.4605C281.85 58.5117 281.362 58.5637 280.875 58.6141C280.183 58.6918 279.599 58.7617 279.125 58.8257C278.291 58.941 277.592 59.1629 277.028 59.4891C276.464 59.8162 276.025 60.3258 275.711 61.0183C275.396 61.7108 275.232 62.6346 275.22 63.7889V64.2115L275.047 64.2312C275.303 63.462 275.784 62.8556 276.49 62.4135C277.195 61.9712 277.99 61.7501 278.875 61.7501C280.093 61.7501 281.051 62.1471 281.75 62.942C282.449 63.7377 282.799 64.8273 282.799 66.2121C282.799 67.1488 282.628 67.9623 282.289 68.6548C281.949 69.3473 281.458 69.886 280.817 70.2703C280.176 70.6554 279.42 70.8474 278.548 70.8474C277.651 70.8474 276.878 70.6589 276.23 70.2808ZM280.269 69.4339C280.75 69.1205 281.113 68.6842 281.356 68.1266C281.599 67.5682 281.722 66.9305 281.722 66.2125C281.722 65.1231 281.455 64.2666 280.923 63.645C280.391 63.0227 279.644 62.7119 278.683 62.7119C278.067 62.7119 277.499 62.8468 276.98 63.1157C276.461 63.3847 276.051 63.7501 275.749 64.2121C275.448 64.674 275.298 65.187 275.298 65.7507V65.9819C275.298 67.2388 275.579 68.2069 276.144 68.8857C276.708 69.5662 277.509 69.9051 278.548 69.9051C279.215 69.9051 279.788 69.7489 280.269 69.4339Z" fill="white"/>
<path d="M285.241 57.9612H286.549V59.6337H285.241V57.9612ZM285.338 61.5002H286.434V70.6555H285.338V61.5002Z" fill="white"/>
<path d="M290.185 70.1749C289.518 69.7259 289.081 69.0658 288.876 68.1932L289.934 67.9627C290.101 68.5656 290.418 69.0403 290.886 69.3862C291.354 69.7328 291.973 69.9052 292.743 69.9052C293.538 69.9052 294.156 69.7455 294.599 69.4244C295.041 69.1043 295.262 68.6423 295.262 68.0396C295.262 67.5144 295.083 67.1168 294.723 66.8469C294.365 66.5779 293.819 66.443 293.088 66.443H291.473V65.5397H293.108C293.775 65.5397 294.262 65.3953 294.57 65.1068C294.877 64.8183 295.032 64.4179 295.032 63.9047C295.032 63.3915 294.842 62.9877 294.464 62.6923C294.086 62.3978 293.544 62.25 292.839 62.25C292.108 62.25 291.508 62.4199 291.04 62.7598C290.572 63.0995 290.236 63.5708 290.03 64.1737L288.972 63.9431C289.204 63.0843 289.655 62.4302 290.329 61.981C291.002 61.532 291.839 61.3073 292.839 61.3073C293.852 61.3073 294.65 61.5284 295.233 61.9716C295.816 62.4139 296.108 63.0329 296.108 63.8278C296.108 64.4946 295.916 65.0325 295.531 65.4433C295.147 65.8539 294.595 66.0657 293.877 66.0777V65.8668C294.634 65.8796 295.236 66.0777 295.686 66.4627C296.134 66.8471 296.359 67.3925 296.359 68.0978C296.359 68.9696 296.035 69.6458 295.387 70.1265C294.74 70.608 293.859 70.8479 292.743 70.8479C291.703 70.8479 290.851 70.6241 290.185 70.1749Z" fill="white"/>
<path d="M298.879 61.5003H299.975V65.4621H305.438V61.5003H306.534V70.6556H305.438V66.4626H299.975V70.6556H298.879V61.5003Z" fill="white"/>
<path d="M310.208 69.5979C309.464 68.7646 309.092 67.5913 309.092 66.0777C309.092 65.0778 309.272 64.2189 309.631 63.5009C309.99 62.7829 310.486 62.2372 311.122 61.8659C311.756 61.4935 312.484 61.3075 313.305 61.3075C314.548 61.3075 315.52 61.6995 316.219 62.4815C316.917 63.2636 317.267 64.2958 317.267 65.5782C317.267 65.9111 317.261 66.1426 317.248 66.2707H309.938L310.15 66.0392V66.1161C310.15 67.3089 310.419 68.2353 310.958 68.8961C311.497 69.5561 312.247 69.8864 313.208 69.8864C313.939 69.8864 314.545 69.7071 315.026 69.3477C315.507 68.9891 315.843 68.5204 316.036 67.9442L317.016 68.1747C316.799 68.9825 316.356 69.6304 315.69 70.1171C315.023 70.6046 314.195 70.8479 313.208 70.8479C311.952 70.8479 310.951 70.4313 310.208 69.5979ZM316.209 65.3852C316.209 64.4751 315.962 63.7254 315.469 63.1355C314.975 62.5456 314.254 62.2502 313.305 62.2502C312.368 62.2502 311.621 62.5583 311.064 63.1739C310.506 63.7895 310.202 64.616 310.15 65.6551L309.938 65.3664H316.421L316.209 65.7703V65.3852Z" fill="white"/>
<path d="M320.258 69.5883C319.495 68.7482 319.114 67.5785 319.114 66.0774C319.114 65.0647 319.287 64.2025 319.633 63.4903C319.979 62.779 320.469 62.237 321.105 61.8654C321.739 61.4931 322.473 61.307 323.307 61.307C324.384 61.307 325.246 61.5572 325.894 62.0575C326.541 62.5579 326.961 63.2247 327.154 64.0579L326.096 64.2696C325.916 63.6797 325.605 63.205 325.163 62.8464C324.721 62.4868 324.102 62.3077 323.307 62.3077C322.665 62.3077 322.11 62.4613 321.643 62.7697C321.175 63.0771 320.819 63.5134 320.575 64.0768C320.332 64.6412 320.21 65.308 320.21 66.0772C320.21 67.2315 320.482 68.1485 321.027 68.8283C321.573 69.5078 322.332 69.8477 323.307 69.8477C324.102 69.8477 324.721 69.6684 325.163 69.309C325.605 68.9504 325.91 68.4757 326.077 67.8858L327.134 68.0778C326.942 68.9239 326.522 69.5977 325.875 70.0979C325.227 70.5974 324.371 70.8476 323.307 70.8476C322.037 70.8476 321.021 70.4284 320.258 69.5883Z" fill="white"/>
<path d="M329 73.387H329.635C330.096 73.387 330.481 73.2743 330.789 73.0507C331.097 72.8262 331.359 72.4505 331.578 71.9253L332.289 70.2321L332.27 71.021L328.23 61.5001H329.442L332.904 69.8281L332.482 69.7896L335.732 61.4999H336.887L332.52 72.2323C332.314 72.771 332.084 73.1972 331.828 73.5114C331.571 73.8255 331.28 74.05 330.952 74.1851C330.626 74.32 330.244 74.3865 329.808 74.3865H329L329 73.387Z" fill="white"/>
</svg>
