<svg preserveAspectRatio="none" width="100%" height="100%" overflow="visible" style="display: block;" viewBox="0 0 349 37.3911" fill="none" xmlns="http://www.w3.org/2000/svg">
<g id="Logo">
<path id="Vector" d="M32.4106 13.7717L19.5445 37.3911L0 0.641421H8.28187L19.5445 23.7326L32.4106 0L44.7674 23.676L56.4639 0.641421H64.7458L45.2013 37.3911L32.3917 13.7717H32.4106Z" fill="var(--fill-0, white)"/>
<path id="Vector_2" d="M68.3281 36.7508V0.642578H75.7045V36.7319H68.3281V36.7508Z" fill="var(--fill-0, white)"/>
<path id="Vector_3" d="M79.5903 36.7508L105.134 6.86813H80.9486V0.642578H118.604L93.1734 30.6007H119.83V36.7508H79.5903Z" fill="var(--fill-0, white)"/>
<path id="Vector_4" d="M164.918 33.901C159.806 36.4289 153.278 37.3911 147.128 37.3911C130.885 37.3911 120.547 29.8827 120.547 18.7521C120.547 7.62159 130.828 0 146.939 0C152.901 0 159.692 0.905535 164.918 3.49008V9.88543C161.617 8.33847 155.542 6.13123 147.392 6.13123C134.771 6.13123 128.433 11.6965 128.433 18.6767C128.433 25.6568 134.639 31.1655 147.524 31.1655C155.995 31.1655 162.277 28.8451 164.918 27.5434V33.8821V33.901Z" fill="var(--fill-0, white)"/>
<path id="Vector_5" d="M200.345 36.7508L191.478 24.3374H177.499V36.7508H170.123V0.642578H194.893C204.212 0.642578 208.287 6.92473 208.287 12.4711C208.287 16.9422 205.382 21.3944 199.364 23.3376L208.815 36.7319H200.345V36.7508ZM177.499 6.84927V18.1119H193.157C198.59 18.1119 200.59 15.5273 200.59 12.49C200.59 9.45268 198.59 6.86813 193.157 6.86813H177.499V6.84927Z" fill="var(--fill-0, white)"/>
<path id="Vector_6" d="M237.943 37.3911C222.36 37.3911 211.871 29.8827 211.871 18.6955C211.871 7.5084 222.341 0 237.943 0C253.545 0 264.147 7.5084 264.147 18.6955C264.147 29.8827 253.997 37.3911 237.943 37.3911ZM237.943 6.28215C227.473 6.28215 219.7 10.8664 219.7 18.6955C219.7 26.5246 227.529 31.1844 237.943 31.1844C248.357 31.1844 256.318 26.6001 256.318 18.6955C256.318 10.791 248.357 6.28215 237.943 6.28215Z" fill="var(--fill-0, white)"/>
<path id="Vector_7" d="M276.521 22.9036V36.7508H269.145V0.642578H305.687V6.92473H276.577V16.697H300.121V22.9036H276.502H276.521Z" fill="var(--fill-0, white)"/>
<path id="Vector_8" d="M325.456 36.7508V6.84927H309.289V0.642578H349V6.84927H332.757V36.7319H325.456V36.7508Z" fill="var(--fill-0, white)"/>
</g>
</svg>
